<?xml version="1.0" encoding="UTF-8"?> <svg xmlns="http://www.w3.org/2000/svg" width="500" height="500" viewBox="0 0 500 500"><g transform="translate(5.239520958083832,8.367859134215058)translate(244.94011976047682,216.1033194610759)rotate(0)translate(-244.94011976047682,-216.1033194610759) scale(4.898802395209536,4.898802395209536)" opacity="1"><defs class="defs"><linearGradient id="linearGradient4d32cd609f14e50dd73cb052065815eb" class="linearGradient1" gradientTransform="translate(0.5,0.5) rotate(87) translate(-0.5,-0.5)" x1="50%" y1="0%" x2="50%" y2="100%"><stop id="stop1" offset="0%" class="linearGradientColor1" stop-color="#00ff1c"></stop><stop id="stop2" offset="55.490654205607484%" class="linearGradientColor2" stop-color="#fff620"></stop></linearGradient></defs><path transform="translate(0,-5.886)" d="M49.796,20.291l-29.249,16.998l7.754,4.477l21.697,12.527l29.248,-16.998zM80.342,39.69l-29.102,16.944l0.113,8.366h28.647v0.087zM50,5.886c-27.614,0 -50,22.34 -50,49.954c0,3.145 0.294,6.16 0.849,9.16h15.151c0,0 0,0.088 0,0.087l0.249,-27.798c0,-0.029 0.089,-0.059 0.091,-0.087c0.002,-0.031 0.045,-0.062 0.049,-0.093c0.004,-0.029 0.032,-0.058 0.038,-0.086c0.006,-0.03 0.021,-0.062 0.029,-0.091c0.008,-0.028 0.024,-0.055 0.033,-0.083c0.01,-0.028 0.021,-0.058 0.032,-0.086c0.012,-0.027 0.027,-0.053 0.04,-0.079c0.013,-0.026 0.026,-0.055 0.041,-0.081c0.015,-0.025 0.033,-0.05 0.05,-0.074c0.017,-0.024 0.032,-0.05 0.05,-0.073c0.019,-0.024 0.041,-0.047 0.061,-0.07c0.019,-0.021 0.036,-0.044 0.057,-0.064c0.023,-0.023 0.049,-0.044 0.074,-0.065c0.021,-0.018 0.04,-0.037 0.062,-0.054c0.026,-0.021 0.056,-0.038 0.084,-0.057c0.022,-0.015 0.042,0.016 0.065,0.003l0.004,0.044v0v0l31.991,-18.639c0.427,-0.248 0.954,-0.272 1.382,-0.025l32.203,18.581c0.053,0.03 0.104,0.059 0.152,0.096c0.014,0.011 0.025,0.021 0.039,0.032c0.033,0.027 0.066,0.053 0.096,0.083c0.017,0.016 0.03,0.033 0.046,0.051c0.024,0.027 0.05,0.054 0.072,0.083c0.016,0.021 0.028,0.043 0.043,0.064c0.02,0.028 0.039,0.055 0.056,0.084c0.014,0.023 0.024,0.049 0.037,0.073c0.014,0.028 0.03,0.057 0.042,0.087c0.011,0.025 0.019,0.052 0.027,0.078c0.01,0.03 0.022,0.06 0.031,0.092c0.007,0.026 0.011,0.054 0.016,0.081c0.007,0.031 0.015,0.062 0.02,0.096c0.004,0.028 -0.184,0.058 -0.182,0.086c0.003,0.031 -0.18,0.062 -0.18,0.093c0,0.001 0,0.002 0,0.003c0,0.001 0,0.002 0,0.003l0.295,27.705h15.856c0.555,-3 0.849,-6.015 0.849,-9.16c0,-27.614 -22.386,-49.954 -50,-49.954zM48.321,56.68l-6.231,-3.684l-22.996,-13.365l0.002,25.369h28.904v0.087zM81.906,68.444c-0.677,0 -1.226,0.598 -1.229,1.275c0,0.677 0.545,1.28 1.223,1.28c0.003,0 0.003,0 0.006,0c0.674,0 1.222,-0.598 1.222,-1.274c0.003,-0.677 -0.545,-1.278 -1.222,-1.281zM81.891,73.072c-0.321,0 -0.64,0.129 -0.866,0.358c-0.228,0.227 -0.358,0.542 -0.358,0.867c0,0.321 0.131,0.637 0.358,0.863c0.227,0.229 0.545,0.361 0.866,0.361c0.321,0 0.638,-0.132 0.867,-0.361c0.227,-0.227 0.358,-0.542 0.358,-0.863c0,-0.325 -0.132,-0.641 -0.358,-0.867c-0.23,-0.229 -0.546,-0.358 -0.867,-0.358zM77.275,75.562c-0.586,0.34 -0.784,1.09 -0.444,1.676c0.229,0.389 0.64,0.609 1.062,0.609c0.208,0 0.42,-0.056 0.612,-0.169c0.586,-0.34 0.784,-1.09 0.444,-1.675c-0.339,-0.581 -1.089,-0.78 -1.674,-0.441zM73.275,77.884c-0.586,0.34 -0.785,1.091 -0.441,1.676c0.227,0.392 0.637,0.609 1.06,0.609c0.208,0 0.42,-0.052 0.612,-0.165c0.585,-0.341 0.784,-1.091 0.444,-1.676c-0.34,-0.585 -1.09,-0.784 -1.675,-0.444zM53.277,89.508c-0.585,0.34 -0.784,1.087 -0.444,1.672c0.23,0.392 0.641,0.613 1.063,0.613c0.208,0 0.419,-0.056 0.612,-0.169c0.585,-0.34 0.784,-1.088 0.444,-1.673c-0.34,-0.585 -1.09,-0.783 -1.675,-0.443zM57.277,87.183c-0.585,0.34 -0.784,1.091 -0.444,1.676c0.23,0.389 0.641,0.609 1.063,0.609c0.208,0 0.42,-0.056 0.612,-0.166c0.585,-0.34 0.784,-1.09 0.444,-1.675c-0.34,-0.585 -1.09,-0.784 -1.675,-0.444zM61.277,84.858c-0.585,0.34 -0.784,1.09 -0.443,1.675c0.227,0.393 0.64,0.609 1.06,0.609c0.211,0 0.423,-0.052 0.615,-0.165c0.585,-0.34 0.784,-1.09 0.444,-1.676c-0.34,-0.584 -1.091,-0.782 -1.676,-0.443zM69.274,80.209c-0.581,0.34 -0.78,1.09 -0.44,1.675c0.227,0.393 0.637,0.609 1.06,0.609c0.208,0 0.42,-0.052 0.615,-0.165c0.585,-0.34 0.781,-1.091 0.441,-1.675c-0.34,-0.586 -1.091,-0.785 -1.676,-0.444zM65.277,82.533c-0.585,0.34 -0.783,1.091 -0.443,1.676c0.227,0.392 0.637,0.609 1.06,0.609c0.208,0 0.419,-0.052 0.615,-0.166c0.585,-0.34 0.784,-1.09 0.444,-1.675c-0.34,-0.585 -1.091,-0.784 -1.676,-0.444zM49.938,77.789c0.674,0 1.223,0.552 1.22,1.228c0.003,-0.676 -0.542,-1.228 -1.22,-1.228zM49.911,87.039c0.677,0.003 1.223,0.551 1.223,1.228c0.003,-0.677 -0.546,-1.225 -1.223,-1.228zM48.805,79.488c0.184,0.439 0.617,0.749 1.125,0.751c-0.507,-0.002 -0.94,-0.312 -1.125,-0.751zM48.684,88.261c0.001,-0.338 0.139,-0.645 0.36,-0.865c-0.223,0.22 -0.36,0.526 -0.36,0.865zM48.684,88.261c-0.004,0.677 0.545,1.229 1.222,1.229c-0.677,-0.004 -1.226,-0.552 -1.222,-1.229zM48.735,69.759c-0.003,0.677 0.545,1.228 1.222,1.228c-0.677,-0.004 -1.222,-0.551 -1.222,-1.228zM49.951,73.161c-0.593,0 -1.088,0.417 -1.203,0.976c-0.017,0.079 -0.025,0.356 -0.025,0.441c-0.003,0.676 0.546,1.422 1.222,1.422h0.003c0.674,0 1.222,-0.739 1.225,-1.413c0,-0.085 -0.008,-0.265 -0.024,-0.345c-0.114,-0.558 -0.606,-1.078 -1.198,-1.081zM49.924,82.414c-0.677,-0.003 -1.226,0.612 -1.229,1.29c0,0.676 0.546,1.296 1.223,1.296h0.003c0.677,0 1.225,-0.612 1.225,-1.29c0.002,-0.678 -0.545,-1.293 -1.222,-1.296zM49.938,77.789c-0.084,0 -0.167,0.008 -0.247,0.024c-0.559,0.111 -0.981,0.605 -0.983,1.194c0,0.171 0.034,0.212 0.097,0.36c0.185,0.441 0.618,0.633 1.125,0.633c0.003,0 0.003,0 0.003,0c0.001,0 0.002,0 0.003,0c0.59,0 1.083,-0.3 1.197,-0.856c0.017,-0.08 0.025,-0.103 0.025,-0.187c0.003,-0.676 -0.546,-1.168 -1.22,-1.168zM49.963,68.536c-0.677,-0.003 -1.225,0.552 -1.228,1.229c0,0.677 0.545,1.235 1.222,1.235h0.003c0.678,0 1.223,-0.552 1.226,-1.229c0.002,-0.677 -0.545,-1.232 -1.223,-1.235zM49.911,87.039c-0.339,-0.002 -0.645,0.135 -0.867,0.356c-0.222,0.221 -0.359,0.783 -0.36,1.121c-0.004,0.677 0.545,1.484 1.221,1.484c0,0 0,0 0.003,0c0.674,0 1.223,-0.801 1.226,-1.478c0,-0.676 -0.546,-1.48 -1.223,-1.483zM49.894,91.667c-0.322,0 -0.638,0.129 -0.864,0.358c-0.229,0.227 -0.358,0.542 -0.358,0.866c0,0.322 0.129,0.638 0.358,0.864c0.227,0.229 0.542,0.358 0.864,0.358c0.324,0 0.64,-0.129 0.866,-0.358c0.229,-0.227 0.361,-0.542 0.361,-0.864c0,-0.324 -0.132,-0.64 -0.361,-0.866c-0.227,-0.229 -0.542,-0.358 -0.866,-0.358zM46.481,89.504c-0.585,-0.336 -1.335,-0.138 -1.672,0.451c-0.337,0.585 -0.138,1.335 0.447,1.672c0.193,0.113 0.404,0.166 0.613,0.166c0.422,0 0.836,-0.222 1.062,-0.613c0.337,-0.588 0.138,-1.335 -0.45,-1.676zM26.355,77.884c-0.585,-0.337 -1.335,-0.138 -1.672,0.45c-0.34,0.586 -0.138,1.336 0.447,1.673c0.193,0.11 0.404,0.165 0.612,0.165c0.423,0 0.833,-0.221 1.063,-0.612c0.337,-0.588 0.138,-1.336 -0.45,-1.676zM22.33,75.56c-0.588,-0.337 -1.335,-0.138 -1.672,0.45c-0.34,0.585 -0.138,1.335 0.447,1.672c0.193,0.113 0.404,0.166 0.613,0.166c0.422,0 0.833,-0.221 1.06,-0.612c0.339,-0.59 0.137,-1.337 -0.448,-1.676zM38.432,84.858c-0.588,-0.34 -1.335,-0.139 -1.675,0.446c-0.337,0.586 -0.135,1.336 0.45,1.673c0.193,0.113 0.404,0.165 0.609,0.165c0.426,0 0.836,-0.22 1.063,-0.612c0.34,-0.585 0.138,-1.335 -0.447,-1.672zM34.407,82.533c-0.588,-0.34 -1.335,-0.138 -1.675,0.447c-0.337,0.588 -0.138,1.336 0.45,1.676c0.193,0.11 0.401,0.162 0.609,0.162c0.426,0 0.836,-0.218 1.063,-0.612c0.34,-0.586 0.138,-1.336 -0.447,-1.673zM42.457,87.18c-0.585,-0.337 -1.335,-0.138 -1.672,0.45c-0.34,0.585 -0.138,1.336 0.447,1.672c0.193,0.113 0.404,0.166 0.612,0.166c0.423,0 0.833,-0.221 1.063,-0.613c0.337,-0.588 0.137,-1.335 -0.45,-1.675zM30.379,80.209c-0.585,-0.338 -1.335,-0.139 -1.672,0.447c-0.337,0.588 -0.138,1.335 0.447,1.675c0.193,0.11 0.404,0.165 0.613,0.165c0.422,0 0.836,-0.22 1.062,-0.612c0.338,-0.588 0.138,-1.338 -0.45,-1.675zM17.693,73.072c-0.325,0 -0.64,0.132 -0.867,0.358c-0.229,0.229 -0.358,0.545 -0.358,0.867c0,0.321 0.129,0.637 0.358,0.866c0.227,0.227 0.542,0.358 0.867,0.358c0.322,0 0.637,-0.132 0.867,-0.358c0.227,-0.229 0.358,-0.545 0.358,-0.866c0,-0.322 -0.132,-0.638 -0.358,-0.867c-0.23,-0.226 -0.545,-0.358 -0.867,-0.358zM17.708,68.447c-0.677,-0.003 -1.229,0.597 -1.229,1.273c-0.002,0.677 0.546,1.28 1.223,1.28c0,0 0,0 0.003,0c0.674,0 1.222,-0.6 1.225,-1.273c0.004,-0.677 -0.545,-1.28 -1.222,-1.28zM97.318,67h-94.948c-0.254,0 -0.459,0.246 -0.459,0.5c0,0.254 0.205,0.5 0.459,0.5h94.949c0.254,0 0.46,-0.246 0.46,-0.5c0,-0.254 -0.207,-0.5 -0.461,-0.5z" fill="url(#linearGradient4d32cd609f14e50dd73cb052065815eb)" class="fill c1"></path></g></svg> 